<?xml version="1.0" standalone="no"?>
<!DOCTYPE svg PUBLIC "-//W3C//DTD SVG 20010904//EN"
 "http://www.w3.org/TR/2001/REC-SVG-20010904/DTD/svg10.dtd">
<svg version="1.0" xmlns="http://www.w3.org/2000/svg"
 width="914.000000pt" height="1280.000000pt" viewBox="0 0 914.000000 1280.000000"
 preserveAspectRatio="xMidYMid meet">
<metadata>
Created by potrace 1.15, written by Peter Selinger 2001-2017
</metadata>
<g transform="translate(0.000000,1280.000000) scale(0.100000,-0.100000)"
fill="#000000" stroke="none">
<path d="M4 12684 c27 -497 94 -903 215 -1299 327 -1077 1010 -1972 2136
-2800 527 -388 1217 -800 2133 -1275 105 -54 177 -97 170 -101 -7 -3 -55 -14
-106 -23 -445 -80 -961 -252 -1397 -466 -933 -458 -1545 -1101 -1686 -1772
-28 -135 -31 -362 -5 -492 97 -493 438 -905 1063 -1282 271 -164 605 -318 998
-461 99 -36 181 -66 183 -68 2 -2 -12 -52 -31 -112 -100 -309 -126 -601 -71
-792 25 -89 74 -177 131 -241 l54 -59 52 21 c77 30 918 363 1251 494 168 66
292 110 296 104 6 -10 78 -534 83 -601 l2 -36 230 48 c772 162 1241 295 1825
519 187 72 439 176 448 184 4 5 46 162 97 366 297 1183 311 2093 45 2845 -56
159 -74 203 -154 360 -124 244 -270 455 -464 671 l-90 101 152 154 c214 216
376 414 543 664 819 1224 1190 2918 967 4410 -27 181 -110 555 -128 572 -8 9
-168 -58 -344 -144 -899 -439 -1608 -1238 -2015 -2268 -278 -704 -409 -1458
-395 -2278 3 -158 2 -284 -2 -280 -4 4 -63 92 -133 194 -881 1306 -2013 2511
-3286 3499 -828 643 -1634 1159 -2655 1700 l-118 62 6 -118z m3684 -6729 c201
-95 303 -321 244 -536 -37 -133 -123 -235 -251 -296 -64 -31 -87 -37 -166 -41
-150 -8 -261 35 -360 139 -94 98 -144 239 -130 363 36 323 370 510 663 371z"/>
<path d="M2701 1590 c-39 -4 -46 -9 -54 -35 -4 -16 -9 -169 -10 -340 -1 -246
2 -335 16 -431 20 -141 57 -278 95 -349 33 -61 96 -126 139 -144 32 -13 38
-10 225 82 301 149 551 238 749 267 l87 13 63 -39 c119 -71 443 -280 694 -447
221 -147 251 -164 257 -147 14 38 57 256 69 355 19 144 16 463 -4 614 -30 214
-116 538 -140 527 -7 -2 -147 -59 -312 -126 -299 -121 -600 -227 -706 -250
l-57 -13 -188 108 c-464 266 -748 375 -923 355z"/>
<path d="M7675 1409 c-27 -5 -151 -28 -275 -50 -608 -110 -1244 -266 -1792
-440 -156 -50 -157 -50 -168 -85 -23 -70 10 -163 82 -230 l33 -32 175 23 c343
45 789 131 1295 251 287 67 725 173 745 179 17 6 103 134 119 178 27 72 3 134
-73 186 -47 33 -60 34 -141 20z"/>
</g>
</svg>
